<svg width="24" height="24" viewBox="0 0 24 24" fill="none" xmlns="http://www.w3.org/2000/svg">
<path fill-rule="evenodd" clip-rule="evenodd" d="M6.21438 7.30346C6.96012 6.50355 8.01743 6.0625 9.2491 6.0625H15.2513C16.4854 6.0625 17.5431 6.50326 18.2885 7.3038C19.0283 8.0983 19.4047 9.18633 19.4047 10.3891V14.1817C19.4047 15.3848 19.0283 16.473 18.2883 17.2674C17.5426 18.0679 16.4847 18.5083 15.2503 18.5083H9.2491C8.01512 18.5083 6.9574 18.0678 6.21192 17.2674C5.47205 16.4729 5.0957 15.3848 5.0957 14.1817V10.3891C5.0957 9.18545 5.47408 8.09753 6.21438 7.30346ZM7.31154 8.32632C6.8731 8.7966 6.5957 9.49698 6.5957 10.3891V14.1817C6.5957 15.0752 6.87221 15.7754 7.30961 16.2451C7.74141 16.7087 8.3854 17.0083 9.2491 17.0083H15.2503C16.1146 17.0083 16.7588 16.7087 17.1907 16.245C17.6282 15.7754 17.9047 15.0752 17.9047 14.1817V10.3891C17.9047 9.4961 17.6282 8.79584 17.1907 8.32598C16.7588 7.86216 16.1148 7.5625 15.2513 7.5625H9.2491C8.38892 7.5625 7.74453 7.86187 7.31154 8.32632Z" fill="white"/>
<path fill-rule="evenodd" clip-rule="evenodd" d="M17.9043 10.3711C17.9043 9.95688 18.2401 9.62109 18.6543 9.62109H18.8061C20.2779 9.62109 21.4709 10.8141 21.4709 12.2859C21.4709 13.7565 20.2781 14.9506 18.8061 14.9506H18.6543C18.2401 14.9506 17.9043 14.6149 17.9043 14.2006C17.9043 13.7864 18.2401 13.4506 18.6543 13.4506H18.8061C19.4492 13.4506 19.9709 12.9285 19.9709 12.2859C19.9709 11.6425 19.4495 11.1211 18.8061 11.1211H18.6543C18.2401 11.1211 17.9043 10.7853 17.9043 10.3711Z" fill="white"/>
<path fill-rule="evenodd" clip-rule="evenodd" d="M9.94727 9.70312C10.3615 9.70312 10.6973 10.0389 10.6973 10.4531V10.4631C10.6973 10.8773 10.3615 11.2131 9.94727 11.2131C9.53305 11.2131 9.19727 10.8773 9.19727 10.4631V10.4531C9.19727 10.0389 9.53305 9.70312 9.94727 9.70312ZM14.5508 9.70312C14.965 9.70312 15.3008 10.0389 15.3008 10.4531V10.4631C15.3008 10.8773 14.965 11.2131 14.5508 11.2131C14.1365 11.2131 13.8008 10.8773 13.8008 10.4631V10.4531C13.8008 10.0389 14.1365 9.70312 14.5508 9.70312Z" fill="white"/>
<path fill-rule="evenodd" clip-rule="evenodd" d="M10.29 13.4966C10.5724 13.1935 11.0469 13.1767 11.35 13.459C11.9113 13.9817 12.7338 13.884 13.125 13.4836C13.4145 13.1874 13.8894 13.1819 14.1856 13.4714C14.4819 13.7609 14.4873 14.2358 14.1978 14.532C13.2483 15.5035 11.4964 15.6451 10.3277 14.5566C10.0246 14.2743 10.0077 13.7998 10.29 13.4966Z" fill="white"/>
<path fill-rule="evenodd" clip-rule="evenodd" d="M3.0293 12.2859C3.0293 10.8141 4.22226 9.62109 5.69407 9.62109H5.84586C6.26007 9.62109 6.59586 9.95688 6.59586 10.3711C6.59586 10.7853 6.26007 11.1211 5.84586 11.1211H5.69407C5.05068 11.1211 4.5293 11.6425 4.5293 12.2859C4.5293 12.9285 5.05093 13.4506 5.69407 13.4506H5.84586C6.26007 13.4506 6.59586 13.7864 6.59586 14.2006C6.59586 14.6149 6.26007 14.9506 5.84586 14.9506H5.69407C4.22201 14.9506 3.0293 13.7565 3.0293 12.2859Z" fill="white"/>
<path fill-rule="evenodd" clip-rule="evenodd" d="M9.94824 3.9375C10.3625 3.9375 10.6982 4.27329 10.6982 4.6875V6.81536C10.6982 7.22957 10.3625 7.56536 9.94824 7.56536C9.53403 7.56536 9.19824 7.22957 9.19824 6.81536V4.6875C9.19824 4.27329 9.53403 3.9375 9.94824 3.9375Z" fill="white"/>
<path fill-rule="evenodd" clip-rule="evenodd" d="M14.5518 2.25C14.966 2.25 15.3018 2.58579 15.3018 3V6.81399C15.3018 7.2282 14.966 7.56399 14.5518 7.56399C14.1375 7.56399 13.8018 7.2282 13.8018 6.81399V3C13.8018 2.58579 14.1375 2.25 14.5518 2.25Z" fill="white"/>
<path fill-rule="evenodd" clip-rule="evenodd" d="M12.2546 20.832C10.7195 20.832 9.39718 21.1741 8.57749 21.6493C8.21915 21.8571 7.76023 21.735 7.55247 21.3767C7.3447 21.0184 7.46677 20.5594 7.82511 20.3517C8.93187 19.71 10.5323 19.332 12.2546 19.332C13.9767 19.332 15.5692 19.7102 16.6747 20.3518C17.033 20.5598 17.1548 21.0187 16.9469 21.377C16.739 21.7352 16.28 21.8571 15.9218 21.6492C15.1027 21.1738 13.7881 20.832 12.2546 20.832Z" fill="white"/>
</svg>
