<svg xmlns="http://www.w3.org/2000/svg">
<symbol id="flight-ai-robot"  width="60" height="60" viewBox="0 0 60 60" fill="none" xmlns="http://www.w3.org/2000/svg">
<path fill-rule="evenodd" clip-rule="evenodd" d="M15.536 18.2587C17.4003 16.2589 20.0436 15.1562 23.1228 15.1562H38.1283C41.2135 15.1562 43.8578 16.2582 45.7213 18.2595C47.5708 20.2458 48.5118 22.9658 48.5118 25.9727V35.4543C48.5118 38.462 47.5708 41.1825 45.7208 43.1685C43.8565 45.1698 41.2118 46.2708 38.1258 46.2708H23.1228C20.0378 46.2708 17.3935 45.1695 15.5298 43.1685C13.6801 41.1823 12.7393 38.462 12.7393 35.4543V25.9727C12.7393 22.9636 13.6852 20.2438 15.536 18.2587ZM18.2789 20.8158C17.1828 21.9915 16.4893 23.7424 16.4893 25.9727V35.4543C16.4893 37.688 17.1805 39.4385 18.274 40.6128C19.3535 41.7717 20.9635 42.5208 23.1228 42.5208H38.1258C40.2865 42.5208 41.897 41.7718 42.9768 40.6125C44.0705 39.4385 44.7618 37.688 44.7618 35.4543V25.9727C44.7618 23.7403 44.0705 21.9896 42.9768 20.815C41.897 19.6554 40.287 18.9062 38.1283 18.9062H23.1228C20.9723 18.9062 19.3613 19.6547 18.2789 20.8158Z" fill="white"/>
<path fill-rule="evenodd" clip-rule="evenodd" d="M44.7607 25.9278C44.7607 24.8922 45.6002 24.0527 46.6357 24.0527H47.0152C50.6947 24.0527 53.6772 27.0353 53.6772 30.7148C53.6772 34.3913 50.6952 37.3765 47.0152 37.3765H46.6357C45.6002 37.3765 44.7607 36.5373 44.7607 35.5015C44.7607 34.466 45.6002 33.6265 46.6357 33.6265H47.0152C48.623 33.6265 49.9272 32.3213 49.9272 30.7148C49.9272 29.1063 48.6237 27.8028 47.0152 27.8028H46.6357C45.6002 27.8028 44.7607 26.9633 44.7607 25.9278Z" fill="white"/>
<path fill-rule="evenodd" clip-rule="evenodd" d="M24.8682 24.2578C25.9037 24.2578 26.7432 25.0973 26.7432 26.1328V26.1578C26.7432 27.1933 25.9037 28.0328 24.8682 28.0328C23.8326 28.0328 22.9932 27.1933 22.9932 26.1578V26.1328C22.9932 25.0973 23.8326 24.2578 24.8682 24.2578ZM36.377 24.2578C37.4125 24.2578 38.252 25.0973 38.252 26.1328V26.1578C38.252 27.1933 37.4125 28.0328 36.377 28.0328C35.3412 28.0328 34.502 27.1933 34.502 26.1578V26.1328C34.502 25.0973 35.3412 24.2578 36.377 24.2578Z" fill="white"/>
<path fill-rule="evenodd" clip-rule="evenodd" d="M25.725 33.7415C26.431 32.9838 27.6173 32.9418 28.3751 33.6475C29.7783 34.9543 31.8345 34.71 32.8125 33.709C33.5363 32.9685 34.7235 32.9548 35.464 33.6785C36.2048 34.4023 36.2183 35.5895 35.4945 36.33C33.1208 38.7588 28.741 39.1128 25.8193 36.3915C25.0615 35.6858 25.0193 34.4995 25.725 33.7415Z" fill="white"/>
<path fill-rule="evenodd" clip-rule="evenodd" d="M7.57324 30.7148C7.57324 27.0353 10.5556 24.0527 14.2352 24.0527H14.6146C15.6502 24.0527 16.4896 24.8922 16.4896 25.9278C16.4896 26.9633 15.6502 27.8028 14.6146 27.8028H14.2352C12.6267 27.8028 11.3232 29.1063 11.3232 30.7148C11.3232 32.3213 12.6273 33.6265 14.2352 33.6265H14.6146C15.6502 33.6265 16.4896 34.466 16.4896 35.5015C16.4896 36.5373 15.6502 37.3765 14.6146 37.3765H14.2352C10.555 37.3765 7.57324 34.3913 7.57324 30.7148Z" fill="white"/>
<path fill-rule="evenodd" clip-rule="evenodd" d="M24.8706 9.84375C25.9063 9.84375 26.7455 10.6832 26.7455 11.7188V17.0384C26.7455 18.0739 25.9063 18.9134 24.8706 18.9134C23.8351 18.9134 22.9956 18.0739 22.9956 17.0384V11.7188C22.9956 10.6832 23.8351 9.84375 24.8706 9.84375Z" fill="white"/>
<path fill-rule="evenodd" clip-rule="evenodd" d="M36.3795 5.625C37.415 5.625 38.2545 6.46448 38.2545 7.5V17.035C38.2545 18.0705 37.415 18.91 36.3795 18.91C35.3438 18.91 34.5045 18.0705 34.5045 17.035V7.5C34.5045 6.46448 35.3438 5.625 36.3795 5.625Z" fill="white"/>
 </symbol>




 <symbol id="flight-ai-status"  width="24" height="25" viewBox="0 0 24 25" fill="none" xmlns="http://www.w3.org/2000/svg">
<path d="M10.9171 19.7752H7.06013C6.41832 19.8158 5.77397 19.7731 5.14313 19.6482C4.54406 19.4816 3.99818 19.1631 3.55842 18.7235C3.11866 18.2839 2.79992 17.7382 2.63312 17.1391C2.50737 16.5081 2.46435 15.8633 2.50513 15.2212C2.50065 15.0496 2.50635 14.878 2.52216 14.7071L2.53913 14.5842C2.55603 14.3305 2.66696 14.0924 2.85017 13.9162L2.92915 13.8292C3.01015 13.7382 3.13715 13.6292 3.98615 12.9152C4.10405 12.8164 4.19853 12.6927 4.26276 12.5529C4.327 12.4132 4.35937 12.2609 4.35755 12.1071C4.35573 11.9534 4.31978 11.8019 4.25227 11.6637C4.18475 11.5255 4.08731 11.4041 3.96711 11.3082C3.6143 11.0476 3.27583 10.7682 2.95313 10.4711C2.72242 10.2719 2.57619 9.99229 2.54414 9.68914L2.52717 9.58315C2.5104 9.40501 2.50438 9.22601 2.50916 9.04714C2.46582 8.39591 2.50954 7.74183 2.63917 7.10216C2.80662 6.50795 3.12361 5.96658 3.55988 5.52977C3.99616 5.09297 4.5371 4.77533 5.13111 4.60717C5.77091 4.47852 6.42485 4.43447 7.07612 4.47616H10.9121C11.0661 4.47616 11.1431 4.47616 11.2181 4.48116C11.7435 4.51662 12.2464 4.70736 12.6632 5.02916C12.7192 5.07216 12.7761 5.12215 12.8821 5.21615C13.0002 5.32889 13.1244 5.43504 13.2542 5.53414C13.4423 5.66122 13.6641 5.72915 13.8911 5.72915C14.1182 5.72915 14.34 5.66122 14.5281 5.53414C14.6521 5.44053 14.7709 5.3404 14.8842 5.23415C14.9972 5.13415 15.0581 5.08014 15.1171 5.03414C15.5322 4.71177 16.0338 4.52031 16.5581 4.48415C16.6391 4.47915 16.7181 4.47814 16.8731 4.47814C17.2463 4.46446 17.6201 4.47883 17.9912 4.52114C18.7429 4.63654 19.4383 4.9887 19.9762 5.52642C20.5141 6.06414 20.8665 6.75942 20.9821 7.51116C21.0232 7.87997 21.0373 8.25129 21.0241 8.62215V9.47616C21.0241 9.67507 20.9451 9.86584 20.8045 10.0065C20.6638 10.1471 20.473 10.2262 20.2741 10.2262C20.0752 10.2262 19.8844 10.1471 19.7438 10.0065C19.6031 9.86584 19.5241 9.67507 19.5241 9.47616V8.62316C19.5337 8.32926 19.5254 8.03503 19.4992 7.74215C19.432 7.30504 19.2269 6.90081 18.9139 6.58837C18.601 6.27592 18.1964 6.07159 17.7592 6.00515C17.4647 5.97772 17.1687 5.96904 16.8731 5.97915C16.7611 5.97915 16.7091 5.97915 16.6561 5.97915C16.4318 5.9956 16.2172 6.07767 16.0391 6.21514C16.0031 6.24414 15.9622 6.27915 15.8842 6.35015C15.721 6.50391 15.5479 6.64689 15.3662 6.77816C14.9309 7.07191 14.4178 7.22887 13.8926 7.22887C13.3675 7.22887 12.8544 7.07191 12.4191 6.77816C12.2438 6.65063 12.0768 6.512 11.9191 6.36315C11.8191 6.27615 11.7861 6.24414 11.7501 6.21514C11.5696 6.07556 11.3518 5.99275 11.1242 5.97716C11.0782 5.97716 11.0241 5.97716 10.9161 5.97716H7.08015C6.56457 5.94751 6.04728 5.97298 5.53712 6.05315C5.19159 6.15108 4.87698 6.33599 4.6233 6.5902C4.36961 6.84441 4.18535 7.15942 4.08814 7.50515C4.00804 8.01095 3.98288 8.52393 4.01313 9.03515C4.01313 9.21715 4.01313 9.31317 4.01313 9.37417L4.06116 9.46114C4.11916 9.51214 4.39714 9.73317 4.90314 10.1372C5.20251 10.3752 5.44394 10.678 5.6092 11.0229C5.77446 11.3678 5.8592 11.7457 5.85712 12.1282C5.85303 12.4968 5.77005 12.8603 5.61378 13.1943C5.45751 13.5282 5.23155 13.8248 4.95112 14.0641C4.40512 14.5231 4.10912 14.7712 4.02912 14.8482L4.00611 14.9221C4.00611 14.9661 4.00611 15.0572 4.00611 15.2222C3.97728 15.7307 4.00211 16.2408 4.08015 16.7442C4.17782 17.0922 4.36344 17.4093 4.61915 17.6648C4.87485 17.9203 5.19205 18.1057 5.54017 18.2031C6.04325 18.2803 6.55301 18.3048 7.06116 18.2761H10.9132C11.1121 18.2761 11.3028 18.3552 11.4435 18.4958C11.5841 18.6365 11.6632 18.8272 11.6632 19.0261C11.6632 19.2251 11.5841 19.4158 11.4435 19.5565C11.3028 19.6971 11.1121 19.7761 10.9132 19.7761L10.9171 19.7752Z" fill="white"/>
<path d="M12.2598 11.625H9.00977C8.81085 11.625 8.62008 11.546 8.47943 11.4053C8.33878 11.2647 8.25977 11.0739 8.25977 10.875C8.25977 10.6761 8.33878 10.4853 8.47943 10.3447C8.62008 10.204 8.81085 10.125 9.00977 10.125H12.2598C12.4587 10.125 12.6494 10.204 12.7901 10.3447C12.9308 10.4853 13.0098 10.6761 13.0098 10.875C13.0098 11.0739 12.9308 11.2647 12.7901 11.4053C12.6494 11.546 12.4587 11.625 12.2598 11.625Z" fill="white"/>
<path d="M17.6271 20.5374C16.7605 20.5372 15.9133 20.2801 15.1928 19.7985C14.4724 19.3168 13.9109 18.6324 13.5794 17.8317C13.2479 17.0309 13.1612 16.1499 13.3304 15.2999C13.4996 14.45 13.9171 13.6693 14.5299 13.0565C15.1428 12.4438 15.9236 12.0266 16.7736 11.8576C17.6236 11.6886 18.5046 11.7754 19.3053 12.1071C20.1059 12.4388 20.7902 13.0004 21.2717 13.721C21.7532 14.4416 22.0101 15.2888 22.0101 16.1554C22.0088 17.3174 21.5465 18.4313 20.7248 19.2529C19.9031 20.0744 18.7891 20.5364 17.6271 20.5374ZM17.6271 13.2734C17.0571 13.2736 16.5 13.4428 16.0262 13.7596C15.5524 14.0764 15.1832 14.5266 14.9652 15.0532C14.7472 15.5799 14.6903 16.1593 14.8016 16.7183C14.9129 17.2773 15.1875 17.7907 15.5905 18.1937C15.9936 18.5966 16.5072 18.871 17.0662 18.9821C17.6252 19.0933 18.2047 19.0361 18.7312 18.818C19.2578 18.5998 19.7078 18.2304 20.0244 17.7565C20.3411 17.2826 20.5101 16.7254 20.5101 16.1554C20.509 15.3912 20.2049 14.6587 19.6645 14.1184C19.124 13.5781 18.3913 13.2742 17.6271 13.2734Z" fill="white"/>
<path d="M18.7544 17.8505C18.6191 17.8507 18.4864 17.814 18.3704 17.7445L17.2224 17.0565C17.1111 16.99 17.019 16.8959 16.955 16.7832C16.891 16.6705 16.8574 16.5431 16.8574 16.4135V14.9375C16.8574 14.7386 16.9364 14.5478 17.0771 14.4072C17.2177 14.2665 17.4085 14.1875 17.6074 14.1875C17.8063 14.1875 17.9971 14.2665 18.1378 14.4072C18.2784 14.5478 18.3574 14.7386 18.3574 14.9375V15.9885L19.1404 16.4575C19.281 16.5419 19.3901 16.6701 19.4509 16.8224C19.5117 16.9747 19.5209 17.1427 19.4771 17.3008C19.4333 17.4588 19.3389 17.5981 19.2084 17.6974C19.0778 17.7967 18.9184 17.8505 18.7544 17.8505Z" fill="white"/>
 
</symbol>



 <symbol id="flight-ai-ticket"  width="24" height="25" viewBox="0 0 24 25" fill="none" xmlns="http://www.w3.org/2000/svg">
<path d="M17.2571 8.31548C17.0555 7.85396 17.0753 7.33957 17.2879 6.89696C17.4696 6.51849 17.5605 6.32919 17.5763 6.26747C17.6317 6.05234 17.6292 6.02719 17.5337 5.82667C17.5062 5.76914 17.4435 5.68505 17.3182 5.51688C16.7339 4.73325 16.4418 4.34144 16.1104 4.09088C15.3131 3.48795 14.2628 3.33486 13.3265 3.68511C12.9375 3.83066 12.5457 4.12279 11.762 4.70704L7.02734 8.23708" stroke="white" stroke-width="1.5" stroke-linecap="round" stroke-linejoin="round"/>
<path d="M19.2698 14.8887C19.2698 14.2173 19.6428 13.6551 20.1923 13.3674C20.5653 13.1716 20.7527 13.0738 20.8025 13.0336C20.9763 12.8935 20.989 12.8718 21.0324 12.6529C21.0451 12.5901 21.0451 12.4847 21.0451 12.2739C21.0451 11.292 21.0451 10.801 20.9292 10.4002C20.6486 9.43578 19.8945 8.68167 18.9303 8.40158C18.5293 8.28516 18.0386 8.28516 17.0564 8.28516H6.9896C6.01008 8.28516 5.51941 8.28516 5.12018 8.40103C4.15333 8.68122 3.39742 9.43759 3.11769 10.4047C3.00271 10.8048 3.00271 11.2948 3.00362 12.2749C3.00452 12.4843 3.00452 12.5892 3.01629 12.6515C3.05975 12.8704 3.07242 12.8914 3.24623 13.0317C3.29603 13.0717 3.48161 13.1699 3.85369 13.3662C4.40229 13.6556 4.77437 14.2198 4.77346 14.8902V14.9426C4.75173 15.57 4.39505 16.1073 3.88175 16.3885C3.48342 16.6068 3.28426 16.716 3.23537 16.756C3.05974 16.9023 3.05522 16.9087 3.01177 17.1335C3 17.195 3 17.3013 3 17.514C3 18.4913 3 18.98 3.11497 19.3789C3.3947 20.3464 4.15152 21.1029 5.11928 21.3824C5.5176 21.4978 6.00646 21.4978 6.98418 21.4978H17.0564C18.0377 21.4978 18.5284 21.4978 18.9294 21.3814C19.8945 21.1013 20.6486 20.3469 20.9283 19.3819C21.0451 18.9813 21.0451 18.4905 21.0442 17.5089C21.0442 17.2983 21.0442 17.1931 21.0324 17.1305C20.989 16.9115 20.9763 16.8906 20.8025 16.7502C20.7527 16.7101 20.5662 16.6115 20.1923 16.4146C19.6419 16.125 19.2698 15.5597 19.2698 14.8887Z" stroke="white" stroke-width="1.5" stroke-linecap="round" stroke-linejoin="round"/>
<path d="M9.15039 16.8516H14.8955" stroke="white" stroke-width="1.5" stroke-linecap="round" stroke-linejoin="round"/>
<path d="M9.15039 12.9336H11.7475" stroke="white" stroke-width="1.5" stroke-linecap="round" stroke-linejoin="round"/>
</symbol>


 <symbol id="flight-ai-search"  width="24" height="25" viewBox="0 0 24 25" fill="none" xmlns="http://www.w3.org/2000/svg">
<path d="M15.4233 22.2529C15.3249 22.253 15.2274 22.2337 15.1365 22.1962C15.0456 22.1586 14.9629 22.1035 14.8933 22.0339L13.4353 20.5749C13.3566 20.4961 13.2963 20.4007 13.259 20.2957C13.2216 20.1908 13.2081 20.0788 13.2193 19.9679L13.4643 17.5969L11.6033 16.0649L7.34128 20.2579C7.27119 20.3322 7.18554 20.3901 7.09046 20.4275C6.99538 20.4648 6.89321 20.4807 6.79128 20.4739C6.68985 20.4705 6.59016 20.4466 6.49822 20.4036C6.40627 20.3607 6.32398 20.2996 6.25628 20.2239C6.11128 20.0619 5.96528 19.9059 5.82128 19.7519C5.46275 19.3863 5.12869 18.9975 4.82128 18.5879C4.55234 18.1807 4.38966 17.7125 4.34809 17.2262C4.30651 16.7399 4.38737 16.251 4.58328 15.8039C5.15128 14.1659 5.72228 12.5289 6.33128 10.9039C6.34153 10.8771 6.35021 10.8498 6.35728 10.8219C6.34728 10.8139 6.32728 10.7909 6.29528 10.7609C5.48428 9.97393 4.56728 9.08294 3.71828 8.14094C2.55528 6.84294 1.90528 4.83394 3.24628 3.49394C4.58728 2.15394 6.59528 2.80193 7.89528 3.96993C8.78328 4.76993 9.60628 5.60894 10.5133 6.54494C10.5347 6.56822 10.5578 6.58993 10.5823 6.60993C10.5933 6.60393 10.6193 6.59593 10.6563 6.58293C12.2813 5.97393 13.9183 5.40193 15.5563 4.83393C16.003 4.6385 16.4915 4.55782 16.9774 4.59921C17.4632 4.6406 17.931 4.80275 18.3383 5.07094C18.7441 5.37403 19.1292 5.70376 19.4913 6.05794C19.6483 6.20494 19.8083 6.35794 19.9743 6.50194C20.0502 6.56951 20.1115 6.6518 20.1547 6.74382C20.1978 6.83584 20.2218 6.93565 20.2251 7.03722C20.2285 7.13878 20.2112 7.23996 20.1742 7.33463C20.1373 7.4293 20.0815 7.51548 20.0103 7.58794L15.8203 11.8479L17.3613 13.7009L19.7233 13.4669C19.8331 13.4559 19.9439 13.4696 20.0477 13.507C20.1516 13.5444 20.2457 13.6045 20.3233 13.6829L21.7813 15.1409C21.862 15.2212 21.9234 15.3188 21.9608 15.4264C21.9981 15.5339 22.0106 15.6485 21.9971 15.7615C21.9836 15.8746 21.9445 15.9831 21.8829 16.0788C21.8212 16.1745 21.7386 16.2549 21.6413 16.3139L18.1553 18.4049L16.0643 21.8889C16.0056 21.9868 15.9254 22.07 15.8298 22.1323C15.7341 22.1945 15.6255 22.234 15.5123 22.2479C15.4828 22.2515 15.453 22.2532 15.4233 22.2529ZM14.7483 19.7669L15.2753 20.2929L16.9673 17.4729C17.0309 17.3675 17.1191 17.279 17.2243 17.2149L20.0453 15.5219L19.5183 14.9949L17.1133 15.2329C16.9912 15.2451 16.868 15.2271 16.7545 15.1805C16.641 15.134 16.5407 15.0603 16.4623 14.9659L14.2333 12.2849C14.1159 12.1423 14.0553 11.9614 14.0631 11.7769C14.0708 11.5924 14.1464 11.4172 14.2753 11.2849L18.3983 7.09393C18.1053 6.80736 17.794 6.54014 17.4663 6.29394C17.2323 6.12694 16.8603 5.97094 16.0473 6.25494C14.4213 6.81794 12.7963 7.38594 11.1843 7.98894C10.8886 8.11966 10.5586 8.15133 10.2434 8.07925C9.92822 8.00717 9.64477 7.83519 9.43528 7.58894C8.54828 6.67394 7.74528 5.85394 6.89228 5.08894C6.25728 4.51894 4.99228 3.86894 4.30728 4.55894C3.62228 5.24894 4.26628 6.50894 4.83728 7.14394C5.65128 8.04394 6.54928 8.91993 7.33728 9.68893C7.58332 9.89836 7.75517 10.1816 7.82724 10.4966C7.89931 10.8115 7.86776 11.1414 7.73728 11.4369C7.13728 13.0479 6.56628 14.6729 6.00228 16.2999C5.72028 17.1119 5.87628 17.4849 6.04328 17.7189C6.28945 18.0466 6.55668 18.358 6.84328 18.6509L11.0343 14.5269C11.1663 14.3977 11.3413 14.3218 11.5259 14.3137C11.7104 14.3056 11.8914 14.3658 12.0343 14.4829L14.7293 16.6979C14.8246 16.7767 14.899 16.8778 14.9459 16.9922C14.9929 17.1067 15.0108 17.2309 14.9983 17.3539L14.7483 19.7669Z" fill="white"/>
</symbol>



 <symbol id="flight-ai-support"  width="24" height="25" viewBox="0 0 24 25" fill="none" xmlns="http://www.w3.org/2000/svg">
 <path fill-rule="evenodd" clip-rule="evenodd" d="M18.9635 12.4437C20.2254 13.1744 20.9814 14.6864 20.563 16.3112C20.2458 17.5459 19.2048 18.5218 17.9535 18.7679C17.7677 18.8049 17.5838 18.8263 17.4048 18.8341C16.496 18.873 15.8111 18.009 16.0232 17.1246L16.931 13.3291C17.146 12.432 18.1656 11.9815 18.9635 12.4437Z" stroke="white" stroke-width="1.5" stroke-linecap="round" stroke-linejoin="round"/>
<path d="M11.5098 21.4736C13.8361 21.4736 15.4843 21.9514 17.151 18.8359" stroke="white" stroke-width="1.5" stroke-linecap="round" stroke-linejoin="round"/>
<path fill-rule="evenodd" clip-rule="evenodd" d="M5.03574 12.4437C3.77381 13.1744 3.01782 14.6864 3.4362 16.3112C3.75338 17.5459 4.79445 18.5218 6.04567 18.7679C6.23151 18.8049 6.4154 18.8263 6.59442 18.8341C7.50317 18.873 8.18813 18.009 7.97603 17.1246L7.06825 13.3291C6.85323 12.432 5.83357 11.9815 5.03574 12.4437Z" stroke="white" stroke-width="1.5" stroke-linecap="round" stroke-linejoin="round"/>
<path d="M19.3518 12.7042V10.8527C19.3518 6.7925 16.0603 3.5 11.9991 3.5C7.93801 3.5 4.64648 6.7925 4.64648 10.8527V12.7042" stroke="white" stroke-width="1.5" stroke-linecap="round" stroke-linejoin="round"/>
</symbol>


 <symbol id="flight-ai-twitter"   width="52" height="51" viewBox="0 0 52 51" fill="none" xmlns="http://www.w3.org/2000/svg" >
<path d="M32.526 17.3585C31.8468 17.6794 30.691 18.281 30.1102 18.396C30.0877 18.4019 30.0693 18.4094 30.0477 18.4152C29.3702 17.7469 28.4418 17.3327 27.4143 17.3327C25.3435 17.3327 23.6643 19.0119 23.6643 21.0827C23.6643 21.1919 23.6552 21.3927 23.6643 21.4994C20.9827 21.4994 19.0243 20.1002 17.5585 18.3019C17.3627 18.0602 17.1543 18.186 17.111 18.3577C17.0135 18.746 16.9802 19.3952 16.9802 19.8585C16.9802 21.026 17.8927 22.1727 19.3135 22.8835C19.0518 22.951 18.7635 22.9994 18.4635 22.9994C18.1102 22.9994 17.7035 22.9069 17.3477 22.7202C17.216 22.651 16.9318 22.6702 17.016 23.0069C17.3535 24.356 18.8935 25.3035 20.2693 25.5794C19.9568 25.7635 19.2902 25.726 18.9835 25.726C18.8702 25.726 18.476 25.6994 18.221 25.6677C17.9885 25.6394 17.631 25.6994 17.9302 26.1527C18.5727 27.1252 20.026 27.736 21.2768 27.7594C20.1252 28.6627 18.2418 28.9927 16.4377 28.9927C16.0727 28.9844 16.091 29.4002 16.3852 29.5544C17.716 30.2527 19.896 30.666 21.4535 30.666C27.6452 30.666 31.1643 25.9469 31.1643 21.4985C31.1643 21.4269 31.1627 21.2769 31.1602 21.126C31.1602 21.111 31.1643 21.0969 31.1643 21.0819C31.1643 21.0594 31.1577 21.0377 31.1577 21.0152C31.1552 20.9019 31.1527 20.796 31.1502 20.741C31.641 20.3869 32.3927 19.7719 32.7727 19.301C32.9018 19.141 32.7977 18.9469 32.6218 19.0077C32.1693 19.1652 31.3868 19.4702 30.8968 19.5285C31.8777 18.8794 32.3627 18.3144 32.7793 17.6869C32.9218 17.4727 32.7435 17.2552 32.526 17.3585Z" fill="white"/>
</symbol>


 <symbol id="flight-ai-facebook"   width="52" height="51" viewBox="0 0 52 51" fill="none" xmlns="http://www.w3.org/2000/svg" >
 <path d="M29.1068 21.4994H26.1693V19.8327C26.1693 18.9727 26.2393 18.4311 27.4718 18.4311H29.0284V15.7811C28.2709 15.7027 27.5093 15.6644 26.7468 15.6661C24.4859 15.6661 22.8359 17.0469 22.8359 19.5819V21.4994H20.3359V24.8327L22.8359 24.8319V32.3327H26.1693V24.8302L28.7243 24.8294L29.1068 21.4994Z" fill="white"/>
</symbol>

 <symbol id="flight-ai-linkedin"   width="52" height="51" viewBox="0 0 52 51" fill="none" xmlns="http://www.w3.org/2000/svg" >
 <path d="M17.8359 21.2229H20.6137V30.6673H17.8359V21.2229ZM19.2165 20.1118H19.2009C18.372 20.1118 17.8359 19.494 17.8359 18.7223C17.8359 17.934 18.3887 17.334 19.2326 17.334C20.0776 17.334 20.5982 17.934 20.6137 18.7223C20.6137 19.4934 20.0776 20.1118 19.2165 20.1118ZM31.1693 30.6673H28.3915V25.6123C28.3915 24.3912 27.7109 23.5579 26.6182 23.5579C25.7843 23.5579 25.3332 24.1201 25.1143 24.6634C25.0343 24.8579 25.0582 25.3957 25.0582 25.6673V30.6673H22.2804V21.2229H25.0582V22.6762C25.4587 22.0562 26.0859 21.2229 27.6904 21.2229C29.6782 21.2229 31.1687 22.4729 31.1687 25.264L31.1693 30.6673Z" fill="white"/>
</symbol>

 <symbol id="flight-ai-shine"  width="31" height="32" viewBox="0 0 31 32" fill="none" xmlns="http://www.w3.org/2000/svg">
<path fill-rule="evenodd" clip-rule="evenodd" d="M27.9323 15.3539C22.3007 13.8553 17.9 9.31258 16.4481 3.49925L15.823 0.996582L15.1978 3.49925C13.746 9.31258 9.34531 13.8553 3.71365 15.3539L1.28918 15.9993L3.71365 16.6459C9.34531 18.1446 13.746 22.6873 15.1978 28.4993L15.823 31.0033L16.4481 28.4993C17.9 22.6873 22.3007 18.1446 27.9323 16.6459L30.3568 15.9993L27.9323 15.3539Z" fill="#1D4ED8"/>
<path fill-rule="evenodd" clip-rule="evenodd" d="M24.5431 10.3292C24.5431 8.77984 26.1887 6.99717 27.771 6.99717C26.2481 6.99717 24.5431 5.19584 24.5431 3.6665C24.5431 5.19584 22.8536 6.99717 21.3165 6.99717C22.7955 6.99717 24.5431 8.7705 24.5431 10.3292Z" fill="#1D4ED8"/>
 </symbol>

  <symbol id="flight-ai-smile" width="28" height="48" viewBox="0 0 28 48" fill="none" xmlns="http://www.w3.org/2000/svg" >
<path d="M14.2083 31.5109C18.4655 31.5109 21.9167 28.1978 21.9167 24.1109C21.9167 20.024 18.4655 16.7109 14.2083 16.7109C9.95114 16.7109 6.5 20.024 6.5 24.1109C6.5 28.1978 9.95114 31.5109 14.2083 31.5109Z" stroke="#18181B"/>
<path d="M17.748 24.552C17.748 26.4289 16.1631 27.9503 14.2081 27.9503C12.2531 27.9503 10.6683 26.4289 10.6683 24.552" stroke="#18181B"/>
<circle cx="18" cy="22" r="1" fill="#18181B"/>
<circle cx="11" cy="22" r="1" fill="#18181B"/>
</symbol>

<symbol id="flight-ai-arrow-left" width="48" height="48" viewBox="0 0 48 48" fill="none" xmlns="http://www.w3.org/2000/svg">
<path d="M16.25 24.2744H31.25" stroke="#18181B" stroke-width="1.5" stroke-linecap="round" stroke-linejoin="round"/>
<path d="M22.2998 30.2988L16.2498 24.2748L22.2998 18.2498" stroke="#18181B" stroke-width="1.5" stroke-linecap="round" stroke-linejoin="round"/>
</symbol>




 <symbol id="flight-ai-user" width="24" height="24" viewBox="0 0 24 24" fill="none" xmlns="http://www.w3.org/2000/svg" >
 
<path opacity="0.4" fill-rule="evenodd" clip-rule="evenodd" d="M12.1504 2.5C6.95039 2.5 2.65039 6.8 2.65039 12C2.65039 17.2 6.95039 21.5 12.1504 21.5C17.3504 21.5 21.6504 17.2 21.6504 12C21.6504 6.8 17.3504 2.5 12.1504 2.5Z" fill="#71717A"/>
<path d="M8.29519 17.3453L16.0072 17.3343C16.2542 17.3343 16.4542 17.1333 16.4542 16.8863C16.4542 15.2623 15.1242 13.6233 12.1512 13.6233C9.17719 13.6233 7.84619 15.2673 7.84619 16.8973C7.84619 17.0163 7.89419 17.1303 7.97719 17.2143C8.06119 17.2983 8.17619 17.3453 8.29519 17.3453Z" fill="#71717A"/>
<path d="M14.9432 9.4473C14.9432 7.9073 13.6912 6.6543 12.1512 6.6543C10.6102 6.6543 9.35815 7.9073 9.35815 9.4473C9.35815 10.9873 10.6102 12.2403 12.1512 12.2403C13.6912 12.2403 14.9432 10.9873 14.9432 9.4473Z" fill="#71717A"/>

</symbol>


 <symbol id="flight-ai-chatbot" width="24" height="24" viewBox="0 0 24 24" fill="none" xmlns="http://www.w3.org/2000/svg" >
<path fill-rule="evenodd" clip-rule="evenodd" d="M6.21438 7.30346C6.96012 6.50355 8.01743 6.0625 9.2491 6.0625H15.2513C16.4854 6.0625 17.5431 6.50326 18.2885 7.3038C19.0283 8.0983 19.4047 9.18633 19.4047 10.3891V14.1817C19.4047 15.3848 19.0283 16.473 18.2883 17.2674C17.5426 18.0679 16.4847 18.5083 15.2503 18.5083H9.2491C8.01512 18.5083 6.9574 18.0678 6.21192 17.2674C5.47205 16.4729 5.0957 15.3848 5.0957 14.1817V10.3891C5.0957 9.18545 5.47408 8.09753 6.21438 7.30346ZM7.31154 8.32632C6.8731 8.7966 6.5957 9.49698 6.5957 10.3891V14.1817C6.5957 15.0752 6.87221 15.7754 7.30961 16.2451C7.74141 16.7087 8.3854 17.0083 9.2491 17.0083H15.2503C16.1146 17.0083 16.7588 16.7087 17.1907 16.245C17.6282 15.7754 17.9047 15.0752 17.9047 14.1817V10.3891C17.9047 9.4961 17.6282 8.79584 17.1907 8.32598C16.7588 7.86216 16.1148 7.5625 15.2513 7.5625H9.2491C8.38892 7.5625 7.74453 7.86187 7.31154 8.32632Z" fill="white"/>
<path fill-rule="evenodd" clip-rule="evenodd" d="M17.9043 10.3711C17.9043 9.95688 18.2401 9.62109 18.6543 9.62109H18.8061C20.2779 9.62109 21.4709 10.8141 21.4709 12.2859C21.4709 13.7565 20.2781 14.9506 18.8061 14.9506H18.6543C18.2401 14.9506 17.9043 14.6149 17.9043 14.2006C17.9043 13.7864 18.2401 13.4506 18.6543 13.4506H18.8061C19.4492 13.4506 19.9709 12.9285 19.9709 12.2859C19.9709 11.6425 19.4495 11.1211 18.8061 11.1211H18.6543C18.2401 11.1211 17.9043 10.7853 17.9043 10.3711Z" fill="white"/>
<path fill-rule="evenodd" clip-rule="evenodd" d="M9.94727 9.70312C10.3615 9.70312 10.6973 10.0389 10.6973 10.4531V10.4631C10.6973 10.8773 10.3615 11.2131 9.94727 11.2131C9.53305 11.2131 9.19727 10.8773 9.19727 10.4631V10.4531C9.19727 10.0389 9.53305 9.70312 9.94727 9.70312ZM14.5508 9.70312C14.965 9.70312 15.3008 10.0389 15.3008 10.4531V10.4631C15.3008 10.8773 14.965 11.2131 14.5508 11.2131C14.1365 11.2131 13.8008 10.8773 13.8008 10.4631V10.4531C13.8008 10.0389 14.1365 9.70312 14.5508 9.70312Z" fill="white"/>
<path fill-rule="evenodd" clip-rule="evenodd" d="M10.29 13.4966C10.5724 13.1935 11.0469 13.1767 11.35 13.459C11.9113 13.9817 12.7338 13.884 13.125 13.4836C13.4145 13.1874 13.8894 13.1819 14.1856 13.4714C14.4819 13.7609 14.4873 14.2358 14.1978 14.532C13.2483 15.5035 11.4964 15.6451 10.3277 14.5566C10.0246 14.2743 10.0077 13.7998 10.29 13.4966Z" fill="white"/>
<path fill-rule="evenodd" clip-rule="evenodd" d="M3.0293 12.2859C3.0293 10.8141 4.22226 9.62109 5.69407 9.62109H5.84586C6.26007 9.62109 6.59586 9.95688 6.59586 10.3711C6.59586 10.7853 6.26007 11.1211 5.84586 11.1211H5.69407C5.05068 11.1211 4.5293 11.6425 4.5293 12.2859C4.5293 12.9285 5.05093 13.4506 5.69407 13.4506H5.84586C6.26007 13.4506 6.59586 13.7864 6.59586 14.2006C6.59586 14.6149 6.26007 14.9506 5.84586 14.9506H5.69407C4.22201 14.9506 3.0293 13.7565 3.0293 12.2859Z" fill="white"/>
<path fill-rule="evenodd" clip-rule="evenodd" d="M9.94824 3.9375C10.3625 3.9375 10.6982 4.27329 10.6982 4.6875V6.81536C10.6982 7.22957 10.3625 7.56536 9.94824 7.56536C9.53403 7.56536 9.19824 7.22957 9.19824 6.81536V4.6875C9.19824 4.27329 9.53403 3.9375 9.94824 3.9375Z" fill="white"/>
<path fill-rule="evenodd" clip-rule="evenodd" d="M14.5518 2.25C14.966 2.25 15.3018 2.58579 15.3018 3V6.81399C15.3018 7.2282 14.966 7.56399 14.5518 7.56399C14.1375 7.56399 13.8018 7.2282 13.8018 6.81399V3C13.8018 2.58579 14.1375 2.25 14.5518 2.25Z" fill="white"/>
<path fill-rule="evenodd" clip-rule="evenodd" d="M12.2546 20.832C10.7195 20.832 9.39718 21.1741 8.57749 21.6493C8.21915 21.8571 7.76023 21.735 7.55247 21.3767C7.3447 21.0184 7.46677 20.5594 7.82511 20.3517C8.93187 19.71 10.5323 19.332 12.2546 19.332C13.9767 19.332 15.5692 19.7102 16.6747 20.3518C17.033 20.5598 17.1548 21.0187 16.9469 21.377C16.739 21.7352 16.28 21.8571 15.9218 21.6492C15.1027 21.1738 13.7881 20.832 12.2546 20.832Z" fill="white"/>
</symbol>





 <symbol id="flight-ai-class"  width="17" height="18" viewBox="0 0 17 18" fill="none" xmlns="http://www.w3.org/2000/svg" >
 
 
<path fill-rule="evenodd" clip-rule="evenodd" d="M1.77148 6.46615C1.77148 4.60794 3.27786 3.10156 5.13607 3.10156H12.2194C14.0776 3.10156 15.584 4.60793 15.584 6.46615V11.5379C15.584 13.3961 14.0776 14.9025 12.2194 14.9025H5.13607C3.27786 14.9025 1.77148 13.3961 1.77148 11.5379V6.46615ZM5.13607 4.16406C3.86467 4.16406 2.83398 5.19474 2.83398 6.46615V11.5379C2.83398 12.8093 3.86466 13.84 5.13607 13.84H12.2194C13.4908 13.84 14.5215 12.8093 14.5215 11.5379V6.46615C14.5215 5.19474 13.4908 4.16406 12.2194 4.16406H5.13607Z" fill="#27272A"/>
<path fill-rule="evenodd" clip-rule="evenodd" d="M6.75391 7.375C6.75391 7.0816 6.99176 6.84375 7.28517 6.84375H8.80922C9.10261 6.84375 9.34047 7.0816 9.34047 7.375C9.34047 7.66838 9.10261 7.90624 8.80922 7.90624H7.28517C6.99176 7.90624 6.75391 7.66838 6.75391 7.375Z" fill="#27272A"/>
<path fill-rule="evenodd" clip-rule="evenodd" d="M4.64844 10.5938C4.64844 10.3004 4.88628 10.0625 5.17969 10.0625H8.80821C9.1016 10.0625 9.33946 10.3004 9.33946 10.5938C9.33946 10.8871 9.1016 11.125 8.80821 11.125H5.17969C4.88628 11.125 4.64844 10.8871 4.64844 10.5938Z" fill="#27272A"/>
<path fill-rule="evenodd" clip-rule="evenodd" d="M11.7246 7.10156C12.018 7.10156 12.2559 7.33941 12.2559 7.6328V10.3587C12.2559 10.6521 12.018 10.89 11.7246 10.89C11.4311 10.89 11.1934 10.6521 11.1934 10.3587V7.6328C11.1934 7.33941 11.4311 7.10156 11.7246 7.10156Z" fill="#27272A"/>
<path fill-rule="evenodd" clip-rule="evenodd" d="M11.7246 3.29688C12.018 3.29688 12.2559 3.53473 12.2559 3.82813V5.66995C12.2559 5.96336 12.018 6.20121 11.7246 6.20121C11.4311 6.20121 11.1934 5.96336 11.1934 5.66995V3.82813C11.1934 3.53473 11.4311 3.29688 11.7246 3.29688Z" fill="#27272A"/>
<path fill-rule="evenodd" clip-rule="evenodd" d="M11.7246 11.7969C12.018 11.7969 12.2559 12.0347 12.2559 12.3281V14.1699C12.2559 14.4634 12.018 14.7012 11.7246 14.7012C11.4311 14.7012 11.1934 14.4634 11.1934 14.1699V12.3281C11.1934 12.0347 11.4311 11.7969 11.7246 11.7969Z" fill="#27272A"/>
 

</symbol>


 <symbol id="flight-ai-stop" width="17" height="18" viewBox="0 0 17 18" fill="none" xmlns="http://www.w3.org/2000/svg" >
 
<path d="M10.9249 15.9083C10.8552 15.9083 10.7861 15.8947 10.7217 15.8681C10.6573 15.8415 10.5987 15.8024 10.5494 15.7531L9.5167 14.7197C9.46095 14.6639 9.41824 14.5963 9.39182 14.5219C9.36532 14.4476 9.35576 14.3683 9.3637 14.2897L9.53724 12.6103L8.21903 11.5251L5.2001 14.4951C5.15045 14.5478 5.08978 14.5888 5.02243 14.6153C4.95508 14.6417 4.88271 14.653 4.81051 14.6481C4.73867 14.6457 4.66805 14.6288 4.60293 14.5983C4.5378 14.568 4.47951 14.5247 4.43156 14.4711C4.32885 14.3563 4.22543 14.2458 4.12343 14.1367C3.86947 13.8778 3.63285 13.6024 3.4151 13.3122C3.2246 13.0238 3.10937 12.6921 3.07992 12.3477C3.05047 12.0032 3.10774 11.6569 3.24651 11.3402C3.64885 10.18 4.05331 9.02043 4.48468 7.86939C4.49194 7.8504 4.49809 7.83107 4.5031 7.8113C4.49601 7.80564 4.48185 7.78935 4.45918 7.7681C3.88472 7.21066 3.23518 6.57954 2.63381 5.91229C1.81001 4.99287 1.3496 3.56983 2.29947 2.62067C3.24935 1.6715 4.67168 2.13049 5.59251 2.95782C6.22151 3.52449 6.80447 4.11879 7.44694 4.78179C7.4621 4.79828 7.47847 4.81366 7.49582 4.82783C7.50361 4.82358 7.52203 4.81791 7.54824 4.8087C8.69928 4.37733 9.85882 3.97216 11.0191 3.56982C11.3355 3.4314 11.6815 3.37425 12.0257 3.40356C12.3698 3.43288 12.7011 3.54774 12.9897 3.73771C13.2771 3.9524 13.5499 4.18595 13.8064 4.43683C13.9176 4.54096 14.0309 4.64933 14.1485 4.75133C14.2022 4.79919 14.2457 4.85748 14.2763 4.92266C14.3068 4.98784 14.3238 5.05854 14.3261 5.13049C14.3285 5.20243 14.3163 5.2741 14.2901 5.34115C14.2639 5.40821 14.2244 5.46926 14.174 5.52058L11.2061 8.53805L12.2976 9.8506L13.9707 9.68485C14.0485 9.67705 14.127 9.68676 14.2005 9.71325C14.2741 9.73974 14.3407 9.78231 14.3957 9.83785L15.4284 10.8706C15.4856 10.9275 15.5291 10.9966 15.5556 11.0728C15.582 11.149 15.5909 11.2301 15.5813 11.3102C15.5717 11.3903 15.544 11.4672 15.5004 11.5349C15.4567 11.6027 15.3982 11.6597 15.3293 11.7015L12.86 13.1826L11.3789 15.6504C11.3373 15.7198 11.2805 15.7787 11.2128 15.8228C11.145 15.8669 11.0681 15.8949 10.9879 15.9047C10.967 15.9073 10.9459 15.9085 10.9249 15.9083ZM10.4467 14.1473L10.82 14.5199L12.0185 12.5224C12.0636 12.4478 12.1261 12.3851 12.2006 12.3397L14.1988 11.1405L13.8255 10.7672L12.1219 10.9358C12.0355 10.9444 11.9482 10.9317 11.8678 10.8986C11.7874 10.8657 11.7164 10.8135 11.6608 10.7466L10.0819 8.8476C9.99879 8.74659 9.95586 8.61845 9.96139 8.48776C9.96684 8.35708 10.0204 8.23298 10.1117 8.13926L13.0322 5.17066C12.8246 4.96767 12.6041 4.77839 12.372 4.604C12.2062 4.48571 11.9427 4.37521 11.3669 4.57637C10.2151 4.97517 9.06407 5.3775 7.92224 5.80462C7.71278 5.89722 7.47903 5.91965 7.25576 5.86859C7.03251 5.81754 6.83174 5.69572 6.68335 5.52129C6.05506 4.87317 5.48626 4.29233 4.88206 3.75046C4.43226 3.34671 3.53622 2.88629 3.05101 3.37504C2.56581 3.86379 3.02197 4.75629 3.42643 5.20608C4.00301 5.84358 4.6391 6.46408 5.19726 7.00878C5.37154 7.15713 5.49327 7.35777 5.54432 7.58087C5.59537 7.80394 5.57302 8.03762 5.4806 8.24693C5.0556 9.38805 4.65114 10.5391 4.25164 11.6916C4.05189 12.2667 4.16239 12.5309 4.28068 12.6967C4.45505 12.9288 4.64434 13.1494 4.84735 13.3568L7.81599 10.4357C7.90949 10.3442 8.03344 10.2904 8.1642 10.2847C8.29489 10.2789 8.4231 10.3216 8.52432 10.4045L10.4333 11.9735C10.5008 12.0293 10.5535 12.1009 10.5867 12.1819C10.62 12.263 10.6327 12.351 10.6238 12.4381L10.4467 14.1473Z" fill="#27272A"/>
 
</symbol>





 <symbol id="flight-ai-bar" width="17" height="18" viewBox="0 0 17 18" fill="none" xmlns="http://www.w3.org/2000/svg" >
 
<path fill-rule="evenodd" clip-rule="evenodd" d="M4.00018 6.17747C4.55522 5.59534 5.34342 5.30469 6.26731 5.30469H11.0881C12.0127 5.30469 12.8003 5.59702 13.3544 6.17983C13.9049 6.75885 14.1651 7.56165 14.1651 8.46995V11.7876C14.1651 12.698 13.9051 13.5012 13.3544 14.0802C12.8 14.6628 12.0124 14.9537 11.0883 14.9537H6.26748C5.34345 14.9537 4.5552 14.6628 4.00016 14.0804C3.44856 13.5015 3.1875 12.6981 3.1875 11.7869V8.46995C3.1875 7.55917 3.44854 6.75602 4.00018 6.17747ZM4.76915 6.91067C4.45208 7.2432 4.25 7.75708 4.25 8.46995V11.7869C4.25 12.5002 4.45215 13.0145 4.76934 13.3474C5.08308 13.6766 5.56919 13.8912 6.26748 13.8912H11.0883C11.7866 13.8912 12.2717 13.6767 12.5846 13.3478C12.901 13.0152 13.1026 12.501 13.1026 11.7876V8.46995C13.1026 7.75942 12.9012 7.2452 12.5843 6.91192C12.2711 6.58244 11.7858 6.36719 11.0881 6.36719H6.26731C5.56889 6.36719 5.0828 6.58171 4.76915 6.91067Z" fill="#4BBC89"/>
<path fill-rule="evenodd" clip-rule="evenodd" d="M6.26953 7.8125C6.56294 7.8125 6.80078 8.05036 6.80078 8.34375V12.0109C6.80078 12.3043 6.56294 12.5421 6.26953 12.5421C5.97613 12.5421 5.73828 12.3043 5.73828 12.0109V8.34375C5.73828 8.05036 5.97613 7.8125 6.26953 7.8125Z" fill="#4BBC89"/>
<path fill-rule="evenodd" clip-rule="evenodd" d="M8.67773 7.8125C8.97113 7.8125 9.20898 8.05036 9.20898 8.34375V12.0109C9.20898 12.3043 8.97113 12.5421 8.67773 12.5421C8.38427 12.5421 8.14648 12.3043 8.14648 12.0109V8.34375C8.14648 8.05036 8.38427 7.8125 8.67773 7.8125Z" fill="#4BBC89"/>
<path fill-rule="evenodd" clip-rule="evenodd" d="M11.0918 7.8125C11.3852 7.8125 11.623 8.05036 11.623 8.34375V12.0109C11.623 12.3043 11.3852 12.5421 11.0918 12.5421C10.7984 12.5421 10.5605 12.3043 10.5605 12.0109V8.34375C10.5605 8.05036 10.7984 7.8125 11.0918 7.8125Z" fill="#4BBC89"/>
<path fill-rule="evenodd" clip-rule="evenodd" d="M6.26754 13.8906C6.56095 13.8906 6.79881 14.1284 6.79883 14.4218L6.79888 15.3742C6.79891 15.6677 6.56107 15.9056 6.26767 15.9056C5.97426 15.9056 5.73641 15.6678 5.73638 15.3743L5.73633 14.4219C5.73631 14.1285 5.97414 13.8906 6.26754 13.8906ZM11.0884 13.8906C11.3818 13.8906 11.6197 14.1284 11.6197 14.4218L11.6197 15.3742C11.6197 15.6677 11.3819 15.9056 11.0885 15.9056C10.7951 15.9056 10.5572 15.6678 10.5572 15.3743L10.5572 14.4219C10.5572 14.1285 10.795 13.8906 11.0884 13.8906Z" fill="#4BBC89"/>
<path fill-rule="evenodd" clip-rule="evenodd" d="M5.99805 3.78006C5.99805 2.84868 6.75257 2.09375 7.68367 2.09375H9.67331C10.6044 2.09375 11.3589 2.84868 11.3589 3.78006V5.83586C11.3589 6.12926 11.1211 6.36711 10.8277 6.36711C10.5343 6.36711 10.2964 6.12926 10.2964 5.83586V3.78006C10.2964 3.43507 10.0172 3.15625 9.67331 3.15625H7.68367C7.33977 3.15625 7.06055 3.43508 7.06055 3.78006V5.83586C7.06055 6.12926 6.8227 6.36711 6.5293 6.36711C6.23589 6.36711 5.99805 6.12926 5.99805 5.83586V3.78006Z" fill="#4BBC89"/>
 
</symbol>



 <symbol id="flight-ai-airplane" width="26" height="21" viewBox="0 0 26 21" fill="none" xmlns="http://www.w3.org/2000/svg" >
 
<path d="M9.18514 8.84215L15.5025 3.00981e-07L18.0005 3.51097e-07L14.8423 8.84215L21.5433 8.84215L23.6265 5.52959L25.5 5.52959L24.251 10.5032L25.5 15.4767L23.6265 15.4767L21.5424 12.1642L14.8441 12.1642L18.0032 21L15.5052 21L9.18514 12.1579L2.37353 12.1579C1.87664 12.1579 1.4001 11.9834 1.04874 11.6727C0.697389 11.3621 0.5 10.9408 0.5 10.5016C0.5 10.0623 0.697389 9.64102 1.04874 9.33041C1.4001 9.0198 1.87664 8.8453 2.37353 8.8453L9.18514 8.84215Z" fill="#18181B"/>
 
</symbol>

 <symbol id="flight-ai-passenger"  width="17" height="18" viewBox="0 0 17 18" fill="none" xmlns="http://www.w3.org/2000/svg" >
 
 
<path fill-rule="evenodd" clip-rule="evenodd" d="M8.74378 3.86719C7.20146 3.86719 5.95117 5.11748 5.95117 6.65979C5.95117 8.20212 7.20146 9.4524 8.74378 9.4524C10.2861 9.4524 11.5364 8.20212 11.5364 6.65979C11.5364 5.11748 10.2861 3.86719 8.74378 3.86719ZM4.88867 6.65979C4.88867 4.53068 6.61466 2.80469 8.74378 2.80469C10.8729 2.80469 12.5989 4.53068 12.5989 6.65979C12.5989 8.7889 10.8729 10.5149 8.74378 10.5149C6.61466 10.5149 4.88867 8.7889 4.88867 6.65979Z" fill="#FF5656"/>
<path fill-rule="evenodd" clip-rule="evenodd" d="M3.6285 13.29C3.6285 11.2788 5.25891 9.64844 7.2701 9.64844H10.2989C12.31 9.64844 13.9405 11.2788 13.9405 13.29C13.9405 13.3485 13.941 13.4078 13.9418 13.4687C13.9556 14.4913 13.1172 15.196 12.1714 15.196H5.39757C4.45168 15.196 3.61342 14.4913 3.62712 13.4687C3.62794 13.4078 3.6285 13.3485 3.6285 13.29ZM7.2701 10.7109C5.8457 10.7109 4.691 11.8656 4.691 13.29C4.691 13.355 4.69038 13.4196 4.68953 13.4829C4.68477 13.8378 4.96573 14.1335 5.39757 14.1335H12.1714C12.6032 14.1335 12.8842 13.8378 12.8794 13.4829C12.8786 13.4196 12.878 13.355 12.878 13.29C12.878 11.8656 11.7232 10.7109 10.2989 10.7109H7.2701Z" fill="#FF5656"/>
 
 
</symbol>


<symbol id="flight-ai-eye" width="49" height="48" viewBox="0 0 49 48" fill="none" xmlns="http://www.w3.org/2000/svg" >
<path fill-rule="evenodd" clip-rule="evenodd" d="M32.069 26.5206C29.1371 20.1676 20.3628 20.1676 17.4309 26.5206C17.2573 26.8967 16.8118 27.0609 16.4357 26.8873C16.0596 26.7138 15.8954 26.2682 16.069 25.8921C19.5371 18.3771 29.9628 18.3771 33.4309 25.8921C33.6045 26.2682 33.4403 26.7138 33.0642 26.8873C32.6881 27.0609 32.2425 26.8967 32.069 26.5206Z" fill="#2563EB"/>
<path fill-rule="evenodd" clip-rule="evenodd" d="M24.7534 26.0605C23.895 26.0605 23.1914 26.7614 23.1914 27.6236C23.1914 28.4865 23.8948 29.1866 24.7534 29.1866C25.6133 29.1866 26.3164 28.4863 26.3164 27.6236C26.3164 26.7616 25.613 26.0605 24.7534 26.0605ZM21.6914 27.6236C21.6914 25.9317 23.0678 24.5605 24.7534 24.5605C26.4398 24.5605 27.8164 25.9315 27.8164 27.6236C27.8164 29.3168 26.4396 30.6866 24.7534 30.6866C23.0681 30.6866 21.6914 29.3166 21.6914 27.6236Z" fill="#2563EB"/>
</symbol>


<symbol id="flight-ai-message" width="48" height="48" viewBox="0 0 48 48" fill="none" xmlns="http://www.w3.org/2000/svg" >
 
<path d="M27.9393 24.413H27.9483" stroke="#71717A" stroke-width="1.5" stroke-linecap="round" stroke-linejoin="round"/>
<path d="M23.9304 24.413H23.9394" stroke="#71717A" stroke-width="1.5" stroke-linecap="round" stroke-linejoin="round"/>
<path d="M19.9214 24.413H19.9304" stroke="#71717A" stroke-width="1.5" stroke-linecap="round" stroke-linejoin="round"/>
<path fill-rule="evenodd" clip-rule="evenodd" d="M31.071 31.0698C28.0159 34.1264 23.4896 34.7867 19.7863 33.074C19.2396 32.8539 15.7011 33.8339 14.9333 33.067C14.1655 32.2991 15.1464 28.7601 14.9263 28.2134C13.2128 24.5106 13.8741 19.9826 16.9302 16.9271C20.8315 13.0243 27.1698 13.0243 31.071 16.9271C34.9803 20.8359 34.9723 27.1681 31.071 31.0698Z" stroke="#71717A" stroke-width="1.5" stroke-linecap="round" stroke-linejoin="round"/>
 
</symbol>

<symbol id="flight-ai-send"  width="48" height="48" viewBox="0 0 48 48" fill="none" xmlns="http://www.w3.org/2000/svg">
 
<path d="M13.7783 13.7971C14.3202 13.2409 15.1222 13.0337 15.87 13.2518L33.308 18.3228C34.097 18.542 34.6562 19.1712 34.8068 19.9706C34.9607 20.7841 34.4232 21.8168 33.7209 22.2487L28.2684 25.5998C27.7092 25.9434 26.9874 25.8572 26.5246 25.3905L20.281 19.108C19.9667 18.7808 19.4465 18.7808 19.1322 19.108C18.8179 19.4242 18.8179 19.9368 19.1322 20.2639L25.3867 26.5475C25.8505 27.0132 25.9372 27.7384 25.5958 28.3011L22.2643 33.8082C21.8741 34.4625 21.2022 34.8333 20.4652 34.8333C20.3785 34.8333 20.281 34.8333 20.1943 34.8224C19.3489 34.7133 18.677 34.1354 18.4277 33.3175L13.2581 15.9018C13.0305 15.1603 13.2364 14.3533 13.7783 13.7971Z" fill="#1D4ED8"/>
 
</symbol>


</svg>