<svg width="24" height="24" viewBox="0 0 24 24" fill="none" xmlns="http://www.w3.org/2000/svg">
<path opacity="0.4" fill-rule="evenodd" clip-rule="evenodd" d="M12.1504 2.5C6.95039 2.5 2.65039 6.8 2.65039 12C2.65039 17.2 6.95039 21.5 12.1504 21.5C17.3504 21.5 21.6504 17.2 21.6504 12C21.6504 6.8 17.3504 2.5 12.1504 2.5Z" fill="#71717A"/>
<path d="M8.29519 17.3453L16.0072 17.3343C16.2542 17.3343 16.4542 17.1333 16.4542 16.8863C16.4542 15.2623 15.1242 13.6233 12.1512 13.6233C9.17719 13.6233 7.84619 15.2673 7.84619 16.8973C7.84619 17.0163 7.89419 17.1303 7.97719 17.2143C8.06119 17.2983 8.17619 17.3453 8.29519 17.3453Z" fill="#71717A"/>
<path d="M14.9432 9.4473C14.9432 7.9073 13.6912 6.6543 12.1512 6.6543C10.6102 6.6543 9.35815 7.9073 9.35815 9.4473C9.35815 10.9873 10.6102 12.2403 12.1512 12.2403C13.6912 12.2403 14.9432 10.9873 14.9432 9.4473Z" fill="#71717A"/>
</svg>
